<svg viewBox="0 0 200 60"  width="200" height="60" fill="none" xmlns="http://www.w3.org/2000/svg"><path fill-rule="evenodd" clip-rule="evenodd" d="M52.933 25.855V14.933l-.024-.023c-3.947-3.405-20.012-10.175-27.605-3.304-9.256 8.375 6.431 20.408 18.75 24.857-8.37-3.561-20.316-11.012-14.386-16.196 4.912-3.502 19.074 1.417 23.247 5.57l.018.018z" fill="#808285"/><path fill-rule="evenodd" clip-rule="evenodd" d="M22.235 25.188c-1.56.084-2.061.527-2.463 1.209-1.133 1.92-.357 4.233-.768 6.826-.145.916-.675 3.588-4.656 5.57-.555.276-1.673.59-2.873.307-.988-.244-4.333-5.737-2.298-6.715 1.14-.336 5.282-.492 6.546-3.57.665-1.618 1.321-3.683 2.074-4.952.686-1.156 1.744-1.448 3.178-1.093.282.735.828 1.602 1.26 2.418z" fill="#F7931D"/><path fill-rule="evenodd" clip-rule="evenodd" d="M40.341 37.404a24.89 24.89 0 001.778.736l1.831.679c.14.052.273.103.4.153-.406 1.689.896 3.13 2.834 4.624l.441.333.695.505.976.685 1.269.885.515.365.514.373.513.381.507.39a23.047 23.047 0 012.148 1.887l.362.432.61.715.346.416c1.302 1.594 2.968 3.948 3.55 6.872l.097.526.031.217c.075.616-.006 1.21-.847 1.385-.194.084-.842.025-1.699-.161l-.444-.104a16.092 16.092 0 01-.233-.06l-.483-.134c-2.302-.676-5.174-2.012-5.485-3.814l-.003-.088.002-.614-.009-.346-.013-.26-.021-.283-.031-.303-.043-.323-.057-.342a9.813 9.813 0 00-.034-.178l-.081-.367c-.403-1.69-1.357-3.855-3.61-5.996l-.175-.179-.362-.361-.57-.55-1.596-1.505-.398-.383-.391-.386-.382-.387c-1.751-1.812-3.068-3.673-2.452-5.435zm6.747 1.842c1.277.453 2.629.84 3.85 1.184.083 1.682 1.577 2.899 3.661 4.091l.512.286.53.286.55.288 2.022 1.042.896.473.602.327.6.338c1.1.632 2.187 1.327 3.19 2.124l.29.251 1.096.905.422.357.444.387c1.431 1.274 3.094 3.024 4.266 5.466l.23.522.088.217c.233.616.31 1.225-.455 1.48-.096.06-.336.105-.676.128l-.316.015c-.169.004-.354.004-.552-.001l-.413-.017a16.48 16.48 0 01-.218-.013l-.453-.038-.473-.054-.242-.033-.49-.08c-1.896-.336-3.896-1.07-4.491-2.447l-.053-.308-.054-.254-.075-.3-.1-.345-.082-.253-.097-.27-.111-.288-.128-.302-.145-.318-.164-.331-.184-.344-.205-.356c-.862-1.447-2.254-3.161-4.508-4.88l-.502-.38-.442-.323-.456-.32-.701-.477-1.43-.95-.474-.32-.467-.322-.457-.326-.444-.33c-1.891-1.447-3.332-3.057-3.191-5.187zm-13.193-4.945l.356.233.788.504a52.858 52.858 0 002.398 1.435c-.746 1.575.077 3.078 1.504 4.703l.34.377.357.382.375.387.586.592 1.275 1.279c.878.893 1.765 1.841 2.55 2.868l.46.62.552.717.211.286.218.31c1.03 1.504 2.185 3.822 1.841 7.228l-.053.427c-.103.696-.343 1.44-1.39 1.515-.067.01-.203-.012-.393-.061l-.254-.072-.299-.098-.34-.122-.374-.145a19.918 19.918 0 01-.198-.08l-.416-.176-.436-.195-.451-.214a22.078 22.078 0 01-.924-.476l-.461-.26c-1.756-1.02-3.335-2.322-3.292-3.567l.037-.121.349-.91.085-.24.084-.26.08-.275.076-.294.035-.153.063-.32c.275-1.582.142-3.74-1.644-6.263a27.021 27.021 0 00-.87-1.27l-1.075-1.479-.432-.609a32.187 32.187 0 01-.14-.203l-.273-.408c-1.29-1.97-2.127-3.943-.905-5.592zm-5.54-3.548l1.335 1.16.59.502c.39.325.763.622 1.072.834-1.034.73-1.13 1.188-1.02 1.714l.042.179.134.486c.01.035.018.07.026.107.196.87.695 1.77 1.306 2.725l.423.646.442.663.45.684c.676 1.04 1.335 2.155 1.788 3.369l.08.179.379.78.122.266.123.284.12.302.116.32c.522 1.534.77 3.642-.65 6.196-.433.748-1.48 1.64-2.033 1.611-.111-.006-.295-.068-.532-.176l-.254-.123a8.897 8.897 0 01-.139-.073l-.299-.166-.159-.093-.334-.204-.353-.227-.366-.247-.375-.266a19.408 19.408 0 01-.19-.139l-.381-.29c-.064-.049-.127-.099-.19-.15l-.378-.308a17.599 17.599 0 01-.185-.158l-.364-.323-.348-.33c-1.132-1.11-1.946-2.3-1.713-3.223a2.61 2.61 0 01.306-.36l.533-.536.287-.301.196-.22.196-.238c.943-1.185 1.765-2.96.725-5.636a17.18 17.18 0 00-.51-1.62l-.463-1.255c-.465-1.264-.894-2.536-.913-3.693-.016-1.029.325-2.102 1.358-2.652zM24 26.745c.181.223.39.505.61.81l.683.952c.23.317.457.62.667.876-1.082.459-1.352.79-1.467 1.264l-.035.174-.059.393c-.176 1.21.182 2.35.633 3.567l.349.928c.313.843.618 1.734.783 2.718l.03.194.028.231.025.267.02.3.011.326c.036 1.758-.336 4.517-2.553 6.168l-.244.18c-.536.391-1.138.76-2.21.823-.192.01-.527-.156-.935-.443l-.253-.186-.267-.213-.278-.237a12.958 12.958 0 01-.142-.128l-.288-.269a14.677 14.677 0 01-.146-.14l-.29-.296-.289-.31a14.42 14.42 0 01-.42-.485l-.268-.334c-1.044-1.348-1.749-2.828-1.153-3.72.085-.073.197-.144.33-.217l.214-.11.24-.114.693-.316.456-.221.312-.166c1.305-.72 2.645-1.867 2.622-4.111l-.002-.505.01-1.071a98.2 98.2 0 01.012-.555l.031-1.12.092-2.58c.05-1.354.993-2.164 2.448-2.324zm-4.735-7.886c-.01.227-.015.475-.015.733l.008 1.21v.407c-1.274-.23-1.826 0-2.271.348l-.154.127-.227.203c-.665.595-.995 1.227-1.275 1.927l-.183.477-.186.498c-.259.68-.579 1.426-1.159 2.257l-.435.588-.202.253-.16.189-.184.201-.101.105-.222.215c-.94.877-2.534 1.909-5.288 2.389-.607.105-1.788.096-2.797-.334-.194-.093-.378-.547-.524-1.157l-.083-.384c-.09-.466-.16-.989-.198-1.5l-.025-.432c-.046-1.136.085-2.102.506-2.063l.816.02.559.002.416-.01.445-.02.47-.032c1.837-.155 4.09-.663 5.454-2.19l.387-.442.858-1 .454-.52c.764-.86 1.55-1.664 2.18-2.005l.095-.048.102-.043.115-.037.063-.017.142-.028.166-.021.194-.014.108-.003h.245l.284.008.328.02.585.048.457.047.252.028zm-.452-3.446l-.113.37-.23.785c-.08.27-.166.55-.26.833-1.615-.455-2.217-.366-2.838-.008l-.187.115c-.336.216-.66.502-1.009.845l-.306.308-.853.88-.39.39c-.475.47-1.024.979-1.683 1.517l-.48.38-.24.176-.19.129c-.068.044-.14.089-.216.135l-.241.138-.27.14c-1.084.538-2.795 1.052-5.414.926l-.527-.034-.407-.037c-.578-.063-1.28-.184-1.899-.454-.764-.39.219-4.688 1.27-4.462l.168.01.368.03 1.32.134.499.043c1.792.14 4.022.12 5.987-.98l.27-.152.572-.337 1.229-.736.625-.364c.83-.473 1.624-.878 2.221-1.027l.24-.057.143-.028.164-.023.188-.015c.502-.026 1.257.048 2.49.43zm.5-3.028c-.142.16-.272.327-.402.5l-.4.535c-.14.183-.29.37-.46.557-1.145-.358-1.798-.385-2.42-.294l-.286.05-.145.03c-.394.085-.799.263-1.253.502l-.35.19-1.199.679-.461.25-.499.26c-.518.261-1.097.53-1.754.79l-.522.2-.226.078-.263.085-.302.089c-.107.03-.22.059-.34.088l-.378.086c-1.258.262-3.091.433-5.5.066-.523-.08-1.392-.34-2.009-.762-.309-.262-.09-.947.357-1.653l.178-.265.196-.261c.714-.906 1.693-1.672 2.262-1.384l.16.036.344.086 1.009.266.458.112c1.578.37 3.64.659 5.92-.054l.591-.188 1.972-.65.497-.157c.397-.121.744-.217 1.02-.27l.21-.036.251-.027.233-.019.278-.014.315-.008c.111-.001.227 0 .347.003l.372.017c.702.045 1.495.177 2.199.487zM48.058 4.81c.204.023.536.13.922.29l.343.146c.176.08.358.166.54.258l.363.188c.9.485 1.708 1.05 1.694 1.366-.884.336-1.037.742-.034 2.1.075.102.158.207.245.315l.275.326.934 1.045c.072.08.134.154.185.218l.17.227.164.235.106.167c.308.511.48 1.092-.29 1.339-.463-.163-.903-.416-1.348-.684l-.675-.404c-.115-.067-.23-.131-.348-.194.543-.264.427-.944.242-1.153l-.438-.496-.239-.252-.186-.179-.229-.204-.288-.243-.446-.363-.34-.294-.29-.265-.322-.308c-.497-.489-1.045-1.086-1.386-1.631-.198-.315-.245-1.358.676-1.55zM4.875 8.405l.54.181.619.214.455.153.24.077.503.152c1.469.425 3.306.77 5.384.489l.548-.07.572-.068.584-.064.86-.084.799-.068.473-.033.406-.023.326-.01.733-.005.368.003c.898.02 2.024.156 2.769.848l-.406.332-.93.742-.226.182-.237-.087-.416-.144c-.509-.166-.841-.235-1.144-.267l-.224-.017-.47-.014c-.541-.013-1.088.047-1.711.167l-.428.09-.454.106-.486.122-.798.213-1.902.518-.446.118-.194.042a6.191 6.191 0 01-.112.02l-.252.04a9.47 9.47 0 01-.141.018l-.312.033-.35.027-.19.011-.41.015c-.215.005-.444.007-.689.003l-.508-.013a29.327 29.327 0 01-3.892-.431c-.474-.083-1.375-.47-1.996-.919-.865-.698 1.895-2.93 3.145-2.599zM46.23 4.817a1.87 1.87 0 01-.207.15l-.157.098c-.087.058-.138.11-.142.217-.008.24.178.563.548 1.006l.243.28.287.31c.051.055.105.11.16.168.137.143.294.291.46.44l.34.3.67.576.292.261c.134.124.248.237.332.335l.11.14.335.353c.384.413.872 1.045.628 1.774-.52-.206-1.175-.543-1.825-.898l-.641-.357-.31-.176c.26-.457.106-.711-.067-.887l-.177-.166-.413-.411-.191-.184-.201-.182a8.273 8.273 0 00-.108-.093l-.241-.196a11.13 11.13 0 00-.136-.106l-.313-.232-.377-.267-.307-.21-.378-.246-.324-.218c-.633-.434-1.453-1.061-1.973-1.776l-.156-.232-.056-.097c-.155-.289-.383-.909.162-1.54.092-.082.47.013.964.2l.344.139.367.16.378.176.378.188.368.193.344.193c.605.351 1.039.674.99.817zm-37.712.179l.314.156.986.526.356.183c1.099.548 2.475 1.071 4.607 1.149l.891.021.273.01.828.043 1.067.07 1.31.092.426.018.513.01.338.014.376.029c.914.086 2.045.325 2.712 1.003-.103.06-.23.127-.375.198l-.467.226-.497.236c-.246.118-.478.235-.663.34-.773-.41-1.233-.58-1.635-.677l-.236-.05-.356-.059-.125-.019a5.419 5.419 0 00-.75-.061l-.31.001a9.152 9.152 0 00-.158.006l-.329.02-.348.027-1.445.137-.763.062-.57.037-.624.03-1.34.046-.31.006h-.538l-.405-.01-.439-.02-.23-.014-.483-.04a16.6 16.6 0 01-3.64-.75c-.44-.145-1.381-.758-1.891-1.24-.3-.415.854-1.107 2.017-1.508l.331-.107c.659-.195 1.276-.277 1.582-.141zM40.38 2.704l.003.427.011.241c.047.643.245.963 1.068 1.635l.317.253.18.14c.165.128.35.26.545.391l.396.263.779.504.342.229c.158.109.294.21.397.298l.143.134.348.274c.459.366 1.095.95 1.013 1.73-.828-.226-1.699-.505-2.701-.926.14-.441-.072-.743-.294-.944l-.132-.108-.166-.122c-.07-.053-.137-.1-.199-.143l-.178-.116-.165-.099-.614-.343-.221-.134-.258-.166a12.243 12.243 0 01-.145-.099l-.33-.232c-.119-.086-.247-.181-.387-.287a1.305 1.305 0 00-.145-.09l-.223-.117-.993-.493-.195-.101-.4-.218c-.605-.343-1.215-.75-1.624-1.207-.145-.163-.695-1.183-.495-1.86.058-.125.547-.068 1.177.078l.392.098.205.056.416.121.416.132.401.138c.713.255 1.28.517 1.316.663zm-5.758-1.33l.239.712.038.104.08.198c.259.58.681 1.044 2.026 1.852.143.086.294.174.45.262l.477.263 1.179.633.412.228c.192.108.36.209.492.298l.516.37c.493.367 1.197.97 1.357 1.762a17.962 17.962 0 01-2.01-.435l-.978-.27c.1-.474-.45-1.037-.736-1.204l-.913-.545-.297-.166-.224-.117-.4-.195-.322-.149-.594-.26-.68-.291-.418-.193-.344-.168-.383-.196-.41-.221c-.7-.39-1.47-.877-2.074-1.408l-.177-.161a2.567 2.567 0 01-.105-.106l-.138-.156c-.246-.298-.551-.775-.544-1.285.003-.083.267-.094.668-.057l.324.037.364.052.392.066.407.077.413.086.405.093.196.048.372.1c.06.016.117.033.173.05l.314.1c.192.067.348.132.453.193zM12.934 2.797l.136.08.27.17.832.552.148.096.312.192c.86.51 1.966 1.003 3.749 1.269l4.88.636.291.044c.852.143 2.265.513 2.839 1.531a6.812 6.812 0 01-.726.136l-.953.133-.486.075-.232.04-.615-.43-.213-.136a1.878 1.878 0 00-.055-.031l-.096-.047-.088-.032-.145-.04-.201-.05-.552-.15-.474-.12-.333-.074-.35-.07-.377-.065-.406-.06-.217-.027-.462-.05-.507-.045a27.98 27.98 0 00-.272-.02l-.585-.033-.643-.027-1.04-.028-.515-.023-.393-.026-.426-.036-.456-.05c-1.17-.141-2.56-.425-3.803-1.002l-.232-.113-.311-.164-.357-.203c-.429-.255-.883-.568-1.123-.856-.2-.35.537-.69 1.457-.899l.353-.072.36-.058.18-.024.357-.036c.644-.05 1.219-.015 1.48.143zM28.92.76l.338.59.12.194.132.194c.397.547 1.005 1.098 2.36 1.73l1.023.465 2.474 1.172.352.158.306.132c.574.26 1.678.89 1.514 1.87l-.532-.092-.44-.085-1.104-.232-.401-.078a22.117 22.117 0 00-.226-.04c-.049-.482-.55-.93-.88-1.153l-.333-.218-.212-.128-.213-.12a6.35 6.35 0 00-.11-.057l-.227-.111-.246-.109-.273-.11-.306-.112-.346-.12-.611-.196-.48-.147-.63-.19-.357-.117-.311-.11-.36-.134-.398-.158-.428-.183-.45-.205c-.764-.362-1.581-.818-2.268-1.36l-.05-.043-.135-.131-.163-.18c-.345-.396-.753-.983-.551-1.19.722-.4 3.496.037 4.422.604zm-10.595.825c.082.058.16.117.238.177l.227.183.56.471.237.19c.694.54 1.594 1.07 3.338 1.442l2.052.437.829.186.497.12.434.114.188.054.283.09.421.129c.773.243 1.836.654 2.2 1.627-.205.043-.47.069-.777.09l-1.015.067c-.182.014-.368.03-.556.051l-.273-.28c-.413-.416-.634-.587-1.017-.74l-.539-.192-.43-.138-.304-.09-.323-.086a14.727 14.727 0 00-.17-.042l-.365-.084-.398-.083-.438-.082-.484-.082-.535-.082-.593-.083-.843-.11-.4-.062-.519-.094-.4-.08-.438-.094a24.599 24.599 0 01-.23-.053l-.476-.118c-.081-.02-.163-.042-.245-.064l-.5-.142c-.843-.25-1.713-.568-2.461-.964-.347-.183-1.267-1.181-1.551-1.743-.076-.544 4.273-.587 4.776.16zm4.92-.863c.097.095.19.193.283.293l.454.494.192.2.207.2c.613.57 1.475 1.148 3.12 1.669l1.724.544.819.271.493.175c.233.086.443.17.622.248l.262.121.486.205c.597.262 1.364.686 1.712 1.585l-2.535-.162c-.253-.524-.631-.841-.996-.986a17.318 17.318 0 00-.83-.308l-.5-.162-.751-.22-2.885-.79-.517-.152-.4-.125-.433-.141-.461-.16-.48-.176-.492-.193a15.13 15.13 0 01-1.93-.93l-.22-.133c-.319-.199-1.127-.768-1.466-1.521-.128-.4 1.373-.445 2.688-.306l.388.047c.693.096 1.276.243 1.445.413z" fill="#015AAA"/><path fill-rule="evenodd" clip-rule="evenodd" d="M56.632 18.75h12.475c1.534 0 2.619.284 3.256.849.689.618 1.033 1.703 1.033 3.255 0 1.21-.143 2.104-.429 2.682-.286.579-.786 1.013-1.501 1.302.78.342 1.296.684 1.55 1.026.253.341.38.953.38 1.834v3.156h-4.289v-2.525c0-.368-.097-.677-.292-.927-.247-.328-.617-.493-1.111-.493H60.92v3.945h-4.29V18.751zm4.288 3.65v2.86h6.881c.468 0 .803-.102 1.004-.306.202-.204.302-.575.302-1.114 0-.54-.103-.914-.311-1.125-.208-.21-.54-.315-.995-.315h-6.88zm16.628 10.454V18.751h15.01v3.412H81.836v1.953H92.07v3.393H81.836v1.933h10.722v3.412h-15.01zm18.655-14.063v14.083h4.288V21.769l.312.63 5.341 10.475h3.509l4.951-10.47.312-.634v11.104h4.289V18.79h-7.31l-3.665 7.91-.349.683-.313-.683-3.665-7.91h-7.7zm38.83 14.063h-3.587l-.858-.852c-.364.242-.665.42-.904.536-.718.369-1.378.59-1.981.663h-2.089c-.842-.084-1.58-.32-2.215-.71-.779-.484-1.242-1.126-1.388-1.925a3.328 3.328 0 01-.046-.536c0-.695.197-1.326.592-1.894.395-.568.926-1 1.591-1.294a4.42 4.42 0 01-.647-1.033 2.616 2.616 0 01-.242-1.066c0-.368.083-.726.25-1.073a3.17 3.17 0 011.317-1.144 4.022 4.022 0 011.739-.386h2.027c.811 0 1.515.218 2.113.657.598.44.965 1.065 1.1 1.88.02.19.031.327.031.41 0 .519-.166 1.006-.499 1.46-.271.382-.671.747-1.201 1.095l.904.951.702-.852h2.714c-.188.495-.349.873-.484 1.137-.416.82-.837 1.357-1.263 1.61l2.324 2.366zm-7.501-6.832c.229 0 .447-.132.655-.395.208-.263.312-.542.312-.836a.74.74 0 00-.25-.584c-.166-.147-.437-.221-.811-.221-.249 0-.439.076-.569.229a.834.834 0 00-.195.56c0 .305.086.59.257.852.172.263.372.395.601.395zm1.388 4.213l-2.121-1.547a7.64 7.64 0 00-.904.158c-.604.179-.905.458-.905.836 0 .285.218.558.655.821.343.2.712.347 1.107.442.104.02.192.031.265.031.312 0 .666-.078 1.061-.236.395-.158.676-.326.842-.505zm16.292-11.681c3.976 0 6.426.335 7.349 1.006.805.578 1.208 2.117 1.208 4.615h-4.308c0-.815-.214-1.335-.643-1.558-.533-.276-1.735-.414-3.606-.414-2.092 0-3.32.164-3.684.493-.364.329-.546 1.368-.546 3.116 0 1.736.182 2.768.546 3.097.364.329 1.592.493 3.684.493 1.897 0 3.083-.115 3.557-.345.475-.23.712-.772.712-1.627h4.288c0 2.511-.39 4.05-1.169 4.615-.923.671-3.386 1.006-7.388 1.006-4.003 0-6.423-.368-7.261-1.104-.838-.737-1.258-2.788-1.258-6.154 0-3.354.403-5.385 1.209-6.095.871-.763 3.307-1.144 7.31-1.144zm30.175 7.258c0 3.432-.409 5.484-1.228 6.154-.884.724-3.548 1.085-7.992 1.085-3.249 0-5.38-.118-6.394-.355-1.274-.302-2.079-.96-2.417-1.972-.26-.776-.39-2.413-.39-4.912 0-3.432.403-5.483 1.209-6.154.883-.736 3.547-1.104 7.992-1.104 4.431 0 7.089.361 7.972 1.084.832.684 1.248 2.742 1.248 6.174zm-14.132 0c0 1.802.204 2.85.614 3.146.409.297 1.842.444 4.298.444 2.469 0 3.908-.148 4.317-.444.41-.295.615-1.344.615-3.146 0-1.814-.205-2.87-.615-3.166-.409-.295-1.842-.443-4.298-.443-2.469 0-3.908.148-4.317.443-.41.296-.614 1.352-.614 3.166zm16.764 7.062V18.79h4.288v14.084h-4.288zm7.154-14.103h4.288v10.434h9.727v3.649h-14.015V18.771zM92.147 37.399a2.177 2.177 0 00-1.128-.292c-.637 0-1.17.21-1.584.626-.394.396-.593.889-.593 1.465 0 .57.19 1.063.569 1.465.412.436.953.655 1.608.655.571 0 1.059-.18 1.45-.54.39-.36.614-.83.667-1.402a.243.243 0 00-.241-.267h-2.427l-.056.007a.244.244 0 00-.187.237v.326l.006.056.023.06a.243.243 0 00.214.128h1.626l-.04.066-.085.105c-.061.067-.13.127-.208.181a1.243 1.243 0 01-.728.23c-.407 0-.732-.14-.992-.423-.24-.26-.356-.55-.356-.88 0-.317.102-.595.31-.843.246-.293.58-.438 1.024-.438.24 0 .45.053.634.158.163.093.293.228.39.406a.242.242 0 00.213.126h.426l.063-.008a.245.245 0 00.158-.336 1.856 1.856 0 00-.756-.868zm53.982.298c-.409-.392-.919-.59-1.519-.59-.601 0-1.112.202-1.521.602-.41.401-.617.91-.617 1.513 0 .6.208 1.107.621 1.503.411.394.921.593 1.517.593.601 0 1.113-.203 1.521-.607.41-.405.617-.916.617-1.518 0-.597-.208-1.1-.619-1.496zm8.923 0c-.409-.392-.92-.59-1.519-.59-.601 0-1.113.202-1.521.602-.41.401-.618.91-.618 1.513 0 .6.209 1.107.622 1.503.41.394.92.593 1.517.593.601 0 1.112-.203 1.521-.607.41-.405.617-.916.617-1.518 0-.597-.208-1.1-.619-1.496zm31.575-.59c.6 0 1.111.198 1.519.59.412.395.619.9.619 1.496 0 .603-.206 1.113-.616 1.518-.409.404-.921.607-1.522.607-.596 0-1.106-.199-1.517-.593-.412-.396-.621-.903-.621-1.503 0-.602.207-1.112.618-1.513.408-.4.92-.602 1.52-.602zm12.171.388c-.228-.258-.541-.388-.921-.388a1.203 1.203 0 00-1.258 1.22c0 .441.201.78.585.98l.827.292.081.037c.05.026.093.057.125.09a.391.391 0 01.108.293c0 .14-.043.252-.133.349-.084.09-.2.136-.364.136-.164 0-.278-.042-.359-.125a.505.505 0 01-.138-.374.244.244 0 00-.243-.244h-.358l-.055.006a.243.243 0 00-.187.238c0 .38.132.701.393.948.257.243.58.365.956.365.413 0 .753-.143 1.004-.427.217-.246.327-.538.327-.867 0-.415-.157-.75-.466-.979a1.944 1.944 0 00-.546-.259l-.311-.094a1.145 1.145 0 01-.314-.14c-.06-.046-.089-.11-.089-.22 0-.123.033-.224.1-.31.052-.066.135-.101.271-.101.166 0 .273.047.344.141a.422.422 0 01.081.261c0 .135.109.244.243.244h.357l.056-.006a.244.244 0 00.187-.238c0-.321-.102-.601-.303-.828zm-35.937-.388c.38 0 .693.13.921.388.202.227.304.507.304.828 0 .116-.08.212-.187.238l-.056.006h-.358a.243.243 0 01-.242-.244.417.417 0 00-.082-.261c-.07-.094-.177-.141-.343-.141-.136 0-.219.035-.271.101a.484.484 0 00-.1.31c0 .11.028.174.088.22.053.041.16.09.315.14l.311.094c.234.077.415.162.546.26.309.229.466.563.466.978 0 .329-.111.621-.327.867-.251.284-.592.427-1.004.427a1.35 1.35 0 01-.957-.365 1.255 1.255 0 01-.393-.948c0-.116.08-.213.187-.238l.056-.006h.358c.134 0 .242.109.242.244 0 .158.046.278.139.373.081.084.195.126.358.126.165 0 .281-.045.365-.136a.49.49 0 00.133-.349.39.39 0 00-.233-.383l-.082-.037-.396-.138-.431-.154c-.383-.2-.585-.539-.585-.979 0-.3.096-.568.283-.792.235-.285.567-.429.975-.429zm-50.013 0c.413 0 .785.097 1.112.292.33.196.582.473.755.827a.245.245 0 01-.161.344l-.057.007h-.426a.243.243 0 01-.204-.112 1.202 1.202 0 00-.292-.32 1.177 1.177 0 00-.722-.224c-.377 0-.674.122-.908.368-.236.251-.353.551-.353.914 0 .373.122.678.371.928s.549.373.914.373a1.168 1.168 0 001.002-.559.241.241 0 01.145-.108l.062-.008h.425c.184 0 .301.196.214.359-.188.352-.444.63-.766.829-.324.2-.686.3-1.082.3-.594 0-1.099-.196-1.503-.587-.416-.404-.626-.918-.626-1.527 0-.596.204-1.1.607-1.498.403-.398.905-.598 1.493-.598zm59.256.355c-.21-.237-.497-.355-.844-.355-.33 0-.604.11-.807.332a1.02 1.02 0 00-.272.704c0 .203.052.394.154.57l.066.104.015.018-.081.052-.116.09-.106.101c-.236.24-.358.54-.358.883 0 .386.123.713.369.969.248.259.579.388.977.388.296 0 .553-.077.764-.232l.096-.08.094-.097c.062-.069.123-.15.182-.24l.007-.011.607.591.051.038c.09.05.206.039.285-.036l.256-.243.042-.052.025-.06a.244.244 0 00-.065-.24l-.774-.758.578-1.107.021-.054a.244.244 0 00-.236-.303h-.401l-.053.006-.05.017a.242.242 0 00-.113.11l-.366.715-.206-.204.122-.085.057-.047.053-.05a.933.933 0 00.306-.685c0-.285-.094-.539-.279-.749zm9.025-.355c.413 0 .785.097 1.112.292.33.196.582.473.754.827a.245.245 0 01-.16.344l-.058.007h-.425a.242.242 0 01-.204-.112 1.189 1.189 0 00-.293-.32 1.172 1.172 0 00-.721-.224c-.377 0-.674.122-.908.368-.237.251-.353.551-.353.914 0 .373.122.678.371.928s.549.373.914.373a1.168 1.168 0 001.002-.559.241.241 0 01.145-.108l.061-.008h.426c.183 0 .3.196.214.359a2.14 2.14 0 01-.766.829 2.02 2.02 0 01-1.082.3c-.594 0-1.099-.196-1.503-.587-.416-.404-.626-.918-.626-1.527 0-.596.204-1.1.607-1.498.403-.398.905-.598 1.493-.598zm-51.035.292a2.136 2.136 0 00-1.112-.292c-.588 0-1.09.2-1.493.598-.403.398-.607.902-.607 1.498 0 .609.21 1.123.626 1.526.404.392.909.589 1.503.589.396 0 .758-.1 1.082-.301.322-.2.578-.477.766-.83a.244.244 0 00-.214-.358h-.425l-.062.008a.241.241 0 00-.145.108 1.168 1.168 0 01-1.002.56 1.23 1.23 0 01-.914-.374 1.254 1.254 0 01-.371-.928c0-.363.116-.663.353-.914.234-.246.531-.368.908-.368.281 0 .519.075.721.224.111.083.209.189.293.32.045.07.122.112.204.112h.425l.058-.007c.146-.035.23-.2.16-.344a1.914 1.914 0 00-.754-.827zm20.174-.229c.115 0 .211.08.236.188l.007.056v.326c0 .115-.08.212-.187.237l-.056.007h-.575v3.027a.244.244 0 01-.126.214l-.061.023-.055.007h-.358a.243.243 0 01-.236-.188l-.007-.056v-3.027h-.574a.242.242 0 01-.213-.127l-.023-.061-.007-.056v-.326c0-.115.08-.212.187-.237l.056-.007h1.992zm-91.2.346c-.291-.233-.69-.346-1.192-.346h-1.002l-.055.007a.244.244 0 00-.187.237v3.597l.006.056a.243.243 0 00.236.188h.358l.056-.007.06-.023a.244.244 0 00.127-.214v-1.376l1.134 1.522.195.098h.445l.063-.009.056-.022a.245.245 0 00.075-.36l-.765-1.019.085-.03.115-.055c.111-.06.213-.14.303-.237.238-.255.359-.57.359-.932 0-.454-.158-.819-.472-1.075zm4.233-.346c.115 0 .212.08.237.188l.006.056v.326c0 .115-.08.212-.187.237l-.056.007h-1.363v.81h1.31c.092 0 .172.051.213.127l.023.06.007.057v.325c0 .116-.08.212-.187.238l-.056.006h-1.31v.834h1.363c.092 0 .172.052.213.127l.024.061.006.056v.326c0 .115-.08.212-.187.237l-.056.007h-1.963a.243.243 0 01-.236-.188l-.006-.056v-3.597c0-.115.08-.212.187-.237l.055-.007h1.963zm18.814.188a.243.243 0 00-.237-.188h-.358l-.055.007a.244.244 0 00-.187.237v3.597l.006.056a.243.243 0 00.236.188h.358l.056-.007a.244.244 0 00.187-.237v-3.597l-.006-.056zm18.99-.188c.115 0 .211.08.236.188l.007.056v.326c0 .115-.08.212-.188.237l-.055.007h-1.363v.81h1.31c.092 0 .172.051.213.127l.023.06.006.057v.325a.243.243 0 01-.187.238l-.055.006h-1.31v.834h1.363c.092 0 .172.052.213.127l.023.061.007.056v.326c0 .115-.08.212-.188.237l-.055.007h-1.963a.243.243 0 01-.236-.188l-.007-.056v-3.597c0-.115.08-.212.187-.237l.056-.007h1.963zm-33.317.474c-.256-.32-.663-.474-1.197-.474h-1.132l-.056.007a.244.244 0 00-.187.237v3.597l.007.056a.243.243 0 00.236.188h.358l.055-.007.06-.023a.244.244 0 00.127-.214v-1.2h.532l.176-.006c.4-.03.722-.162.955-.403.23-.239.344-.546.344-.909 0-.335-.092-.622-.278-.85zm90.736-.474c.501 0 .9.112 1.191.346.315.256.472.621.472 1.075 0 .362-.12.677-.358.932a1.215 1.215 0 01-.303.237l-.115.055-.085.03.764 1.019a.245.245 0 01-.074.36l-.056.023-.064.008h-.445l-.194-.098-1.134-1.522v1.376a.243.243 0 01-.127.214l-.06.023-.056.007h-.358a.243.243 0 01-.236-.188l-.006-.056v-3.597c0-.115.079-.212.187-.237l.055-.007h1.002zm-36.137.346c-.291-.233-.69-.346-1.191-.346h-1.002l-.055.007a.243.243 0 00-.187.237v3.597l.006.056a.243.243 0 00.236.188h.358l.056-.007.06-.023a.243.243 0 00.127-.214l-.001-1.377 1.135 1.523.195.098h.444l.064-.009.056-.022a.245.245 0 00.074-.36l-.764-1.019.085-.03.115-.055c.111-.06.212-.14.303-.237.238-.255.358-.57.358-.932 0-.454-.157-.819-.472-1.075zm-4.113-.346c.115 0 .211.08.236.188l.007.056v.326c0 .115-.08.212-.188.237l-.055.007h-.576l.001 3.027a.244.244 0 01-.126.214l-.061.023-.055.007h-.358a.243.243 0 01-.236-.188l-.007-.056v-3.027h-.574a.242.242 0 01-.213-.127l-.023-.061-.007-.056v-.326c0-.115.08-.212.187-.237l.056-.007h1.992zm75.559.188a.243.243 0 00-.236-.188h-.358l-.056.007a.244.244 0 00-.187.237v3.597l.007.056a.243.243 0 00.236.188h1.837l.056-.007a.244.244 0 00.187-.237v-.326l-.006-.056-.024-.06a.242.242 0 00-.213-.128h-1.237v-3.027l-.006-.056zm-90.213-.188c.115 0 .211.08.237.188l.006.056v3.027h1.237c.092 0 .172.052.213.127l.023.061.007.056v.326c0 .115-.08.212-.187.237l-.056.007h-1.838a.243.243 0 01-.236-.188l-.006-.056v-3.597c0-.115.08-.212.187-.237l.055-.007h.358zm-32.473.099a.242.242 0 00-.194-.099h-.396l-.057.007a.243.243 0 00-.166.14l-1.543 3.597-.017.061a.244.244 0 00.24.28h.387l.057-.007.052-.02a.243.243 0 00.114-.12l.453-1.059h1.344l.455 1.058.028.05c.046.06.117.098.195.098h.386l.063-.008a.244.244 0 00.16-.332l-1.532-3.597-.029-.05zm53.879-.099c.115 0 .211.08.236.188l.006.056v3.597a.243.243 0 01-.187.237l-.055.007h-.358a.243.243 0 01-.236-.188l-.007-.056v-3.597c0-.115.08-.212.187-.237l.056-.007h.358zm-40.248.062a.242.242 0 00-.162-.062h-.484l-.055.007a.244.244 0 00-.187.237v3.597l.006.056a.243.243 0 00.236.188h.358l.056-.007.06-.023a.244.244 0 00.127-.214V38.64l1.704 2.508.039.045c.044.04.101.062.161.062h.358l.055-.007a.244.244 0 00.188-.237v-3.597l-.007-.056a.243.243 0 00-.236-.188h-.358l-.055.007-.061.023a.244.244 0 00-.127.214v2.192l-1.577-2.329-.04-.045zm-6.73-.062c.502 0 .901.112 1.192.346.315.256.472.621.472 1.075 0 .362-.12.677-.358.932-.09.097-.192.176-.304.237l-.114.055-.085.03.764 1.019a.245.245 0 01-.075.36l-.055.023-.064.008h-.445l-.194-.098-1.135-1.523v1.377a.244.244 0 01-.126.214l-.06.023-.056.007h-.358a.243.243 0 01-.236-.188l-.007-.056v-3.597c0-.115.08-.212.188-.237l.055-.007h1.001zm31.176.188a.243.243 0 00-.236-.188h-1.963l-.056.007a.244.244 0 00-.187.237v3.597l.007.056a.243.243 0 00.236.188h1.963l.056-.007a.244.244 0 00.187-.237v-.326l-.007-.056-.023-.06a.242.242 0 00-.213-.128h-1.363v-.834h1.31l.056-.006a.244.244 0 00.187-.238v-.325l-.007-.056-.023-.061a.242.242 0 00-.213-.127h-1.31v-.81h1.363l.056-.007a.244.244 0 00.187-.237v-.326l-.007-.056zm81.761-.188c.115 0 .211.08.236.188l.006.056v3.597a.243.243 0 01-.187.237l-.055.007h-.358a.245.245 0 01-.237-.188l-.006-.056v-3.597c0-.115.08-.212.187-.237l.056-.007h.358zm-115.956.188a.243.243 0 00-.236-.188h-.358l-.056.007a.244.244 0 00-.187.237v3.597l.007.056a.243.243 0 00.236.188h.358l.056-.007a.244.244 0 00.187-.237v-3.597l-.007-.056zm62.419-.188c.078 0 .149.038.195.098l.028.05 1.093 2.542 1.092-2.542a.246.246 0 01.113-.121l.053-.02.057-.007h.551c.115 0 .211.08.236.188l.007.056v3.597c0 .115-.08.212-.187.237l-.056.007h-.358a.243.243 0 01-.236-.188l-.007-.056-.001-2.002-.892 2.098a.238.238 0 01-.113.121l-.053.02-.057.007h-.299a.242.242 0 01-.195-.099l-.028-.05-.894-2.1v2.005a.244.244 0 01-.126.214l-.061.023-.055.007h-.358a.243.243 0 01-.236-.188l-.007-.056v-3.597c0-.115.08-.212.187-.237l.056-.007h.551zm48.255 1.12c.248-.247.554-.37.929-.37.377 0 .681.119.927.357.243.237.363.537.363.916 0 .387-.121.697-.366.943a1.243 1.243 0 01-.924.368c-.38 0-.687-.119-.934-.359-.244-.238-.365-.54-.365-.923 0-.38.122-.685.37-.932zm-41.088-.37c-.375 0-.681.123-.929.37s-.371.552-.371.932c0 .383.121.685.366.923.247.24.554.36.934.36.375 0 .678-.122.923-.369.245-.246.367-.556.367-.943 0-.38-.12-.68-.364-.916-.245-.238-.549-.356-.926-.356zm26.41 1.54l.612.6-.064.117a.822.822 0 01-.185.223.474.474 0 01-.312.104.427.427 0 01-.338-.144.524.524 0 01-.139-.37c0-.084.02-.162.061-.236.062-.109.173-.204.339-.281l.026-.014zm-17.488-1.54c-.375 0-.68.123-.929.37-.248.247-.37.552-.37.932 0 .383.121.685.366.923.246.24.553.36.933.36.375 0 .679-.122.924-.369.245-.246.366-.556.366-.943 0-.38-.12-.68-.363-.916-.245-.238-.55-.356-.927-.356zm-83.113 1.316l.33-.778.323.778h-.653zm88.1-1.252h-.401v1.182l.052-.02.063-.007h.286c.293 0 .503-.054.633-.151.126-.094.187-.23.187-.431 0-.167-.046-.289-.14-.38-.107-.106-.287-.172-.545-.189l-.135-.004zm-101.05 0h.402l.135.004c.258.017.438.083.545.188a.5.5 0 01.14.38c0 .202-.061.338-.187.432-.13.097-.34.15-.633.15h-.286l-.063.009-.052.02v-1.183zm20.575 0h-.402v1.182l.053-.02.063-.007h.285c.294 0 .504-.054.633-.151.127-.094.188-.23.188-.431a.5.5 0 00-.14-.38c-.107-.106-.287-.172-.545-.189l-.135-.004zm42.745 0h.401l.136.004c.258.017.438.083.545.189.094.091.14.213.14.38 0 .201-.062.337-.188.43-.129.098-.339.152-.633.152h-.285l-.063.008-.053.02v-1.183zm-54.199 0h-.536v1.013h.536c.236 0 .398-.055.5-.16a.458.458 0 00.128-.344.473.473 0 00-.124-.349c-.085-.087-.212-.14-.39-.155l-.114-.005zm104.486.002a.298.298 0 01.198-.065c.092 0 .151.023.194.066a.238.238 0 01.066.176.213.213 0 01-.063.148l-.049.048a.804.804 0 01-.136.093l-.058.029-.084-.085a.595.595 0 01-.089-.126.294.294 0 01-.036-.141c0-.071.018-.111.057-.143z" fill="#808285"/></svg>