<svg width="24" height="24" viewBox="0 0 24 24" fill="none" xmlns="http://www.w3.org/2000/svg">
<g id="&#240;&#159;&#166;&#134; icon &#34;people&#34;">
<path id="Vector" d="M0 0H24V24H0V0Z" fill="white" fill-opacity="0.01"/>
<g id="Group">
<path id="Vector_2" d="M11.9999 10C13.9329 10 15.4999 8.433 15.4999 6.5C15.4999 4.56701 13.9329 3 11.9999 3C10.0669 3 8.49994 4.56701 8.49994 6.5C8.49994 8.433 10.0669 10 11.9999 10Z" fill="#0A60AD" stroke="#0A60AD" stroke-width="2.43591" stroke-linecap="round" stroke-linejoin="round"/>
<path id="Vector_3" d="M2.99994 20.4V21H20.9999V20.4C20.9999 18.1598 20.9999 17.0397 20.564 16.184C20.1805 15.4314 19.5685 14.8195 18.8159 14.436C17.9602 14 16.8401 14 14.5999 14H9.39994C7.15974 14 6.03964 14 5.18399 14.436C4.43133 14.8195 3.8194 15.4314 3.43591 16.184C2.99994 17.0397 2.99994 18.1598 2.99994 20.4Z" fill="#0A60AD" stroke="#0A60AD" stroke-width="2.43591" stroke-linecap="round" stroke-linejoin="round"/>
</g>
</g>
</svg>
