<svg width="24" height="24" viewBox="0 0 24 24" fill="none" xmlns="http://www.w3.org/2000/svg">
<g id="icon">
<path id="Vector" d="M0 0H24V24H0V0Z" fill="white" fill-opacity="0.01"/>
<path id="Vector_2" d="M1.99994 7L1.55272 6.10555C1.21394 6.27495 0.999939 6.62125 0.999939 7H1.99994ZM11.9999 2L12.4471 1.10557C12.1656 0.964809 11.8342 0.964809 11.5527 1.10557L11.9999 2ZM21.9999 7H22.9999C22.9999 6.62125 22.7859 6.27495 22.4471 6.10555L21.9999 7ZM21.9999 17L22.4471 17.8944C22.7859 17.725 22.9999 17.3787 22.9999 17H21.9999ZM11.9999 22L11.5527 22.8944C11.8342 23.0352 12.1656 23.0352 12.4471 22.8944L11.9999 22ZM1.99994 17H0.999939C0.999939 17.3787 1.21394 17.725 1.55272 17.8944L1.99994 17ZM2.44715 7.89445L12.4471 2.89442L11.5527 1.10557L1.55272 6.10555L2.44715 7.89445ZM20.9999 7V17H22.9999V7H20.9999ZM21.5527 16.1055L11.5527 21.1055L12.4471 22.8944L22.4471 17.8944L21.5527 16.1055ZM12.4471 21.1055L2.44715 16.1055L1.55272 17.8944L11.5527 22.8944L12.4471 21.1055ZM2.99994 17V7H0.999939V17H2.99994ZM22.4471 6.10555L12.4471 1.10557L11.5527 2.89442L21.5527 7.89445L22.4471 6.10555Z" fill="#0A60AD"/>
<path id="Vector_3" d="M1.99988 7L11.9999 12" stroke="#0A60AD" stroke-width="1.72164" stroke-linecap="round" stroke-linejoin="round"/>
<path id="Vector_4" d="M11.9999 22V12" stroke="#0A60AD" stroke-width="1.72164" stroke-linecap="round" stroke-linejoin="round"/>
<path id="Vector_5" d="M21.9999 7L11.9999 12" stroke="#0A60AD" stroke-width="1.72164" stroke-linecap="round" stroke-linejoin="round"/>
<path id="Vector_6" d="M16.5392 5.6239C16.9508 5.4122 17.1176 4.89736 16.9119 4.47397C16.706 4.05059 16.2055 3.87898 15.7939 4.09067L16.5392 5.6239ZM7.46083 8.3761C7.04918 8.5878 6.88236 9.10265 7.08814 9.52601C7.29397 9.94941 7.79453 10.121 8.20614 9.90935L7.46083 8.3761ZM15.7939 4.09067L7.46083 8.3761L8.20614 9.90935L16.5392 5.6239L15.7939 4.09067Z" fill="#0A60AD"/>
</g>
</svg>
