<svg width="24" height="24" viewBox="0 0 24 24" fill="none" xmlns="http://www.w3.org/2000/svg">
<g id="icon">
<path id="Vector" d="M0 0H24V24H0V0Z" fill="white" fill-opacity="0.01"/>
<path id="Vector_2" d="M2.5434 8.08693L2.78473 7.96627V16.0337L2.5434 15.9131L2.35091 15.8168L2.25467 16.0093L1.86693 16.7848H1.21514V7.2152H1.86693L2.25467 7.99069L2.35091 8.18318L2.5434 8.08693ZM1.2452 17.2152H1.65173L1.46993 17.5788C1.36289 17.4808 1.28501 17.3548 1.2452 17.2152ZM1.84145 17.7982L2.13294 17.2152H2.99994H3.21514V17V16.7302L11.5187 20.8819L11.4565 20.9131L11.264 21.0093L11.3603 21.2018L11.7593 22L11.4565 22.6057L1.84145 17.7982ZM22.1584 17.7982L12.5434 22.6057L12.2405 22L12.6396 21.2018L12.7359 21.0093L12.5434 20.9131L12.4812 20.8819L20.7847 16.7302V17V17.2152H20.9999H21.8669L22.1584 17.7982ZM22.5299 17.5788L22.3481 17.2152H22.7547C22.7149 17.3548 22.637 17.4808 22.5299 17.5788ZM22.7847 16.7848H22.1329L21.7452 16.0093L21.649 15.8168L21.4565 15.9131L21.2151 16.0337V7.96626L21.4565 8.08693L21.649 8.18318L21.7452 7.99069L22.1329 7.2152H22.7847V16.7848ZM22.5299 6.42117C22.637 6.5192 22.7149 6.64521 22.7547 6.78479H22.3481L22.5299 6.42117ZM22.1584 6.20179L21.8669 6.78479H20.9999H20.7847V7V7.26984L12.4812 3.11802L12.5434 3.08691L12.7359 2.99067L12.6396 2.79818L12.2405 2L12.5434 1.3943L22.1584 6.20179ZM12.145 1.22871L11.9999 1.51877L11.8549 1.22871C11.9507 1.2107 12.0491 1.2107 12.145 1.22871ZM11.4565 1.3943L11.7593 2L11.3603 2.79818L11.264 2.99067L11.4565 3.08691L11.5187 3.11803L3.21514 7.26984V7V6.78479H2.99994H2.13294L1.84145 6.20179L11.4565 1.3943ZM1.46993 6.42117L1.65173 6.78479H1.2452C1.28501 6.64522 1.36289 6.5192 1.46993 6.42117ZM2.34815 7.2152H2.78473V7.48505L2.5434 7.60572L2.34815 7.2152ZM12.1584 2.79818L11.9999 2.87742L11.8415 2.79818L11.9999 2.48122L12.1584 2.79818ZM21.6517 7.2152L21.4565 7.60572L21.2151 7.48504V7.2152H21.6517ZM21.2151 16.7848V16.515L21.4565 16.3943L21.6517 16.7848H21.2151ZM11.9999 21.5188L11.8415 21.2018L11.9999 21.1226L12.1584 21.2018L11.9999 21.5188ZM2.5434 16.3943L2.78473 16.5149V16.7848H2.34815L2.5434 16.3943ZM11.9999 22.4812L12.145 22.7713C12.0491 22.7893 11.9507 22.7893 11.8549 22.7713L11.9999 22.4812Z" fill="#808285" stroke="#808285" stroke-width="0.430411"/>
<path id="Vector_3" d="M1.99988 7L11.9999 12" stroke="#808285" stroke-width="1.72164" stroke-linecap="round" stroke-linejoin="round"/>
<path id="Vector_4" d="M11.9999 22V12" stroke="#808285" stroke-width="1.72164" stroke-linecap="round" stroke-linejoin="round"/>
<path id="Vector_5" d="M21.9999 7L11.9999 12" stroke="#808285" stroke-width="1.72164" stroke-linecap="round" stroke-linejoin="round"/>
<path id="Vector_6" d="M7.9042 9.78045C7.65562 9.81005 7.40263 9.68071 7.28169 9.43193L7.9042 9.78045ZM7.9042 9.78045L7.3814 8.70494C7.21093 8.89497 7.16074 9.18308 7.28169 9.43192L7.9042 9.78045ZM7.74637 8.47125L15.6965 4.38272L16.2536 5.52875L8.30346 9.6173L7.74637 8.47125ZM16.6186 5.29506L16.0958 4.21956C16.3444 4.18994 16.5974 4.31928 16.7183 4.56805C16.8393 4.81691 16.7891 5.10503 16.6186 5.29506Z" fill="#808285" stroke="#808285" stroke-width="0.430411"/>
</g>
</svg>
